# xmcd
#
# Track frame offsets:
#	150
#	14717
#	30172
#	49250
#	66471
#	81081
#	100897
#	119258
#	135697
#	150884
#
# Disc length: 2227 seconds
#
# Revision: 1
# Processed by: cddbd v1.5.1PL0 Copyright (c) Steve Scherf et al.
# Submitted via: audiograbber 1.83.01
#
DISCID=7b08b10a
DTITLE=Annie - Annie Sims
DYEAR=1900
DGENRE=Country
TTITLE0=Nothing broken but a heart
TTITLE1=Just can't tell
TTITLE2=Everything I know about leavin'
TTITLE3=When you say it first
TTITLE4=Wildflower
TTITLE5=21 to 17
TTITLE6=Sweet music man
TTITLE7=Love never said
TTITLE8=Through the years
TTITLE9=Say goodnight
EXTD=
EXTT0=
EXTT1=
EXTT2=
EXTT3=
EXTT4=
EXTT5=
EXTT6=
EXTT7=
EXTT8=
EXTT9=
PLAYORDER=
